<?xml version="1.0" encoding="UTF-8" standalone="no" ?>
<!DOCTYPE svg PUBLIC "-//W3C//DTD SVG 1.1//EN" "http://www.w3.org/Graphics/SVG/1.1/DTD/svg11.dtd">
<svg xmlns="http://www.w3.org/2000/svg" xmlns:xlink="http://www.w3.org/1999/xlink" version="1.1" width="1080" height="1080" viewBox="0 0 1080 1080" xml:space="preserve">
<desc>Created with Fabric.js 5.2.4</desc>
<defs>
</defs>
<g transform="matrix(1 0 0 1 540 540)" id="b120c479-d3d1-4f20-ab64-db7ea66d335d"  >
<rect style="stroke: none; stroke-width: 1; stroke-dasharray: none; stroke-linecap: butt; stroke-dashoffset: 0; stroke-linejoin: miter; stroke-miterlimit: 4; fill: rgb(255,255,255); fill-rule: nonzero; opacity: 1; visibility: hidden;" vector-effect="non-scaling-stroke"  x="-540" y="-540" rx="0" ry="0" width="1080" height="1080" />
</g>
<g transform="matrix(1 0 0 1 540 540)" id="7e8449a5-4644-4df2-9fae-47a0bdb218bc"  >
</g>
<g transform="matrix(0.13 0 0 -0.13 205.96 536.35)"  >
<path style="stroke: none; stroke-width: 1; stroke-dasharray: none; stroke-linecap: butt; stroke-dashoffset: 0; stroke-linejoin: miter; stroke-miterlimit: 4; fill: rgb(255,65,13); fill-rule: nonzero; opacity: 1;" vector-effect="non-scaling-stroke"  transform=" translate(-784.3, -1095.7)" d="M 463 2171 C 409 2137 400 2107 400 1954 C 400 1828 399 1818 383 1825 C 313 1853 251 1870 217 1870 C 169 1870 79 1844 34 1818 L 0 1798 L 0 1111 C 0 466 1 419 19 349 C 68 161 197 44 393 10 C 457 -1 481 0 564 14 C 652 29 754 61 772 79 C 776 82 760 115 735 152 C 678 237 622 345 586 440 C 570 481 554 524 549 535 C 534 571 491 743 476 830 C 457 937 436 1176 445 1190 C 448 1195 480 1200 516 1200 C 572 1200 584 1204 605 1225 C 619 1238 630 1260 630 1273 C 630 1303 588 1350 560 1350 C 538 1350 534 1370 553 1389 C 561 1397 565 1434 565 1503 C 564 1594 561 1611 536 1662 C 521 1693 486 1740 459 1765 C 432 1790 410 1813 410 1816 C 410 1819 434 1832 463 1845 C 506 1866 530 1870 608 1870 C 691 1870 706 1867 761 1839 C 835 1802 899 1739 937 1668 C 963 1619 965 1606 965 1504 C 965 1425 961 1388 951 1377 C 939 1362 940 1360 955 1360 C 985 1360 1030 1305 1030 1268 C 1030 1213 994 1187 913 1182 L 847 1177 L 854 1066 C 873 726 975 395 1134 158 C 1201 57 1224 30 1242 30 C 1267 30 1373 100 1423 148 C 1484 208 1544 326 1559 417 C 1567 465 1570 697 1568 1210 L 1565 1935 L 1542 1984 C 1508 2059 1458 2113 1388 2151 L 1325 2185 L 910 2188 C 512 2190 494 2190 463 2171 z" stroke-linecap="round" />
</g>
<g transform="matrix(0.13 0 0 -0.13 129.75 416.54)"  >
<path style="stroke: none; stroke-width: 1; stroke-dasharray: none; stroke-linecap: butt; stroke-dashoffset: 0; stroke-linejoin: miter; stroke-miterlimit: 4; fill: rgb(255,65,13); fill-rule: nonzero; opacity: 1;" vector-effect="non-scaling-stroke"  transform=" translate(-195.87, -2019.04)" d="M 191 2118 C 189 2091 141 2041 107 2031 C 84 2024 81 2022 96 2021 C 126 2020 170 1982 185 1946 L 198 1915 L 205 1943 C 214 1976 263 2020 293 2021 C 311 2021 309 2024 285 2032 C 245 2046 221 2068 205 2105 C 197 2123 191 2128 191 2118 z" stroke-linecap="round" />
</g>
<g transform="matrix(0.13 0 0 -0.13 648 519.59)"  >
<path style="stroke: none; stroke-width: 1; stroke-dasharray: none; stroke-linecap: butt; stroke-dashoffset: 0; stroke-linejoin: miter; stroke-miterlimit: 4; fill: rgb(0,0,0); fill-rule: nonzero; opacity: 1;" vector-effect="non-scaling-stroke"  transform=" translate(-4087.5, -1231.01)" d="M 4220 1939 C 4193 1935 4096 1893 3980 1834 L 3785 1735 L 3907 1732 L 4030 1729 L 4032 1127 L 4035 525 L 4213 522 L 4390 520 L 4388 1200 L 4385 1880 L 4359 1905 C 4328 1937 4280 1948 4220 1939 z" stroke-linecap="round" />
</g>
<g transform="matrix(0.13 0 0 -0.13 557.11 550)"  >
<path style="stroke: none; stroke-width: 1; stroke-dasharray: none; stroke-linecap: butt; stroke-dashoffset: 0; stroke-linejoin: miter; stroke-miterlimit: 4; fill: rgb(0,0,0); fill-rule: nonzero; opacity: 1;" vector-effect="non-scaling-stroke"  transform=" translate(-3412.5, -1007.79)" d="M 3615 1523 C 3571 1513 3014 1327 3006 1319 C 3000 1314 3087 1310 3211 1310 L 3426 1310 L 3453 1206 C 3468 1149 3480 1099 3480 1096 C 3480 1093 3463 1101 3441 1115 C 3241 1248 2963 1193 2868 1002 C 2848 961 2845 940 2845 840 C 2845 735 2847 721 2872 674 C 2922 580 3004 523 3128 499 C 3302 466 3471 534 3541 665 C 3554 690 3567 710 3571 710 C 3574 710 3586 667 3599 615 L 3622 520 L 3801 520 C 3899 520 3980 523 3980 526 C 3980 530 3955 643 3924 779 C 3765 1482 3769 1467 3720 1501 C 3693 1520 3646 1529 3615 1523 z M 3457 986 C 3567 866 3490 626 3346 644 C 3262 654 3210 729 3210 840 C 3211 944 3252 1015 3322 1029 C 3373 1040 3422 1025 3457 986 z" stroke-linecap="round" />
</g>
<g transform="matrix(0.13 0 0 -0.13 835 550.09)"  >
<path style="stroke: none; stroke-width: 1; stroke-dasharray: none; stroke-linecap: butt; stroke-dashoffset: 0; stroke-linejoin: miter; stroke-miterlimit: 4; fill: rgb(0,0,0); fill-rule: nonzero; opacity: 1;" vector-effect="non-scaling-stroke"  transform=" translate(-5508.25, -1007.12)" d="M 5815 1519 C 5793 1514 5691 1469 5588 1418 L 5402 1327 L 5348 1375 C 5255 1459 5138 1500 4988 1500 C 4660 1500 4442 1252 4481 923 C 4511 673 4726 490 4990 490 C 5297 490 5515 705 5513 1005 C 5512 1104 5488 1196 5444 1262 C 5431 1283 5420 1302 5420 1305 C 5420 1308 5468 1309 5528 1308 L 5635 1305 L 5638 912 L 5640 520 L 5818 522 L 5995 525 L 6000 890 C 6005 1264 6008 1289 6046 1304 C 6086 1320 6128 1310 6154 1279 L 6180 1248 L 6180 884 L 6180 520 L 6360 520 L 6540 520 L 6540 979 L 6540 1437 L 6517 1471 C 6487 1516 6437 1533 6371 1520 C 6343 1515 6249 1475 6161 1430 C 6072 1386 6000 1351 5999 1352 C 5999 1354 5997 1373 5994 1395 C 5992 1417 5985 1448 5978 1463 C 5959 1511 5887 1535 5815 1519 z M 4964 1380 C 4990 1349 4996 1329 5101 975 C 5183 697 5187 680 5170 641 C 5157 608 5116 580 5081 580 C 5069 580 5047 592 5030 607 C 4998 636 5004 621 4854 1138 C 4830 1222 4810 1307 4810 1326 C 4810 1406 4912 1442 4964 1380 z" stroke-linecap="round" />
</g>
<g transform="matrix(0.13 0 0 -0.13 410.98 552.61)"  >
<path style="stroke: none; stroke-width: 1; stroke-dasharray: none; stroke-linecap: butt; stroke-dashoffset: 0; stroke-linejoin: miter; stroke-miterlimit: 4; fill: rgb(0,0,0); fill-rule: nonzero; opacity: 1;" vector-effect="non-scaling-stroke"  transform=" translate(-2315, -988.69)" d="M 2230 1484 C 1972 1435 1810 1244 1810 989 C 1810 905 1837 785 1870 719 C 1901 659 1985 579 2050 547 C 2161 493 2324 476 2449 505 C 2560 531 2669 606 2768 722 C 2813 776 2820 790 2820 828 L 2820 872 L 2744 801 C 2691 752 2641 717 2582 687 C 2507 650 2488 645 2430 645 C 2343 645 2280 681 2234 757 C 2165 872 2163 1089 2229 1217 C 2292 1341 2459 1379 2583 1297 L 2607 1282 L 2588 1168 C 2578 1106 2571 1048 2573 1040 C 2574 1032 2626 1092 2688 1174 C 2749 1256 2797 1327 2794 1332 C 2779 1357 2645 1432 2574 1456 C 2508 1479 2475 1484 2375 1486 C 2309 1487 2244 1486 2230 1484 z" stroke-linecap="round" />
</g>
<g transform="matrix(0.13 0 0 -0.13 571.97 633.83)"  >
<path style="stroke: none; stroke-width: 1; stroke-dasharray: none; stroke-linecap: butt; stroke-dashoffset: 0; stroke-linejoin: miter; stroke-miterlimit: 4; fill: rgb(0,0,0); fill-rule: nonzero; opacity: 1;" vector-effect="non-scaling-stroke"  transform=" translate(-3510, -391.8)" d="M 3500 389 C 3500 384 3505 382 3510 385 C 3516 388 3520 393 3520 396 C 3520 398 3516 400 3510 400 C 3505 400 3500 395 3500 389 z" stroke-linecap="round" />
</g>
<g transform="matrix(0.13 0 0 -0.13 627.18 641.03)"  >
<path style="stroke: none; stroke-width: 1; stroke-dasharray: none; stroke-linecap: butt; stroke-dashoffset: 0; stroke-linejoin: miter; stroke-miterlimit: 4; fill: rgb(0,0,0); fill-rule: nonzero; opacity: 1;" vector-effect="non-scaling-stroke"  transform=" translate(-3925, -336.42)" d="M 3950 375 C 3950 358 3946 352 3936 356 C 3912 365 3880 341 3880 315 C 3880 287 3904 271 3943 273 C 3969 275 3970 276 3970 338 C 3970 373 3966 400 3960 400 C 3955 400 3950 389 3950 375 z M 3948 327 C 3954 299 3932 278 3909 291 C 3887 302 3885 321 3902 338 C 3919 355 3944 349 3948 327 z" stroke-linecap="round" />
</g>
<g transform="matrix(0.13 0 0 -0.13 761.12 640.93)"  >
<path style="stroke: none; stroke-width: 1; stroke-dasharray: none; stroke-linecap: butt; stroke-dashoffset: 0; stroke-linejoin: miter; stroke-miterlimit: 4; fill: rgb(0,0,0); fill-rule: nonzero; opacity: 1;" vector-effect="non-scaling-stroke"  transform=" translate(-4929.39, -337.15)" d="M 4890 340 C 4890 307 4894 280 4900 280 C 4906 280 4910 287 4910 295 C 4910 316 4923 314 4945 290 C 4955 279 4965 272 4968 275 C 4971 278 4965 289 4955 300 C 4938 319 4938 321 4955 340 C 4979 367 4962 366 4933 338 L 4910 317 L 4910 358 C 4910 381 4906 400 4900 400 C 4894 400 4890 373 4890 340 z" stroke-linecap="round" />
</g>
<g transform="matrix(0.13 0 0 -0.13 506.62 635.13)"  >
<path style="stroke: none; stroke-width: 1; stroke-dasharray: none; stroke-linecap: butt; stroke-dashoffset: 0; stroke-linejoin: miter; stroke-miterlimit: 4; fill: rgb(0,0,0); fill-rule: nonzero; opacity: 1;" vector-effect="non-scaling-stroke"  transform=" translate(-3020, -382)" d="M 3006 382 C 3004 378 3010 374 3020 374 C 3030 374 3036 378 3034 382 C 3031 386 3025 390 3020 390 C 3015 390 3009 386 3006 382 z" stroke-linecap="round" />
</g>
<g transform="matrix(0.13 0 0 -0.13 802.45 642.89)"  >
<path style="stroke: none; stroke-width: 1; stroke-dasharray: none; stroke-linecap: butt; stroke-dashoffset: 0; stroke-linejoin: miter; stroke-miterlimit: 4; fill: rgb(0,0,0); fill-rule: nonzero; opacity: 1;" vector-effect="non-scaling-stroke"  transform=" translate(-5238.86, -322.73)" d="M 5219 368 C 5214 312 5238 254 5257 274 C 5261 278 5260 284 5254 288 C 5236 300 5231 339 5246 348 C 5257 354 5255 358 5240 368 C 5224 378 5220 378 5219 368 z" stroke-linecap="round" />
</g>
<g transform="matrix(0.13 0 0 -0.13 459.94 643.79)"  >
<path style="stroke: none; stroke-width: 1; stroke-dasharray: none; stroke-linecap: butt; stroke-dashoffset: 0; stroke-linejoin: miter; stroke-miterlimit: 4; fill: rgb(0,0,0); fill-rule: nonzero; opacity: 1;" vector-effect="non-scaling-stroke"  transform=" translate(-2670.53, -316.17)" d="M 2646 351 C 2642 346 2648 344 2659 347 C 2669 350 2680 347 2684 342 C 2687 337 2676 330 2660 326 C 2610 317 2631 266 2681 273 C 2726 280 2715 360 2669 360 C 2659 360 2649 356 2646 351 z M 2690 306 C 2690 298 2684 290 2677 287 C 2658 280 2636 295 2644 309 C 2654 325 2690 323 2690 306 z" stroke-linecap="round" />
</g>
<g transform="matrix(0.13 0 0 -0.13 482.57 646.03)"  >
<path style="stroke: none; stroke-width: 1; stroke-dasharray: none; stroke-linecap: butt; stroke-dashoffset: 0; stroke-linejoin: miter; stroke-miterlimit: 4; fill: rgb(0,0,0); fill-rule: nonzero; opacity: 1;" vector-effect="non-scaling-stroke"  transform=" translate(-2840.48, -298.94)" d="M 2806 344 C 2785 324 2786 307 2809 286 C 2822 274 2836 271 2856 276 C 2883 283 2884 282 2871 266 C 2860 253 2848 250 2828 254 C 2810 257 2801 256 2805 250 C 2814 236 2864 238 2878 252 C 2885 259 2890 284 2890 309 C 2890 354 2889 355 2856 357 C 2835 359 2815 354 2806 344 z M 2869 331 C 2877 317 2875 309 2861 296 C 2844 281 2841 281 2820 298 C 2799 315 2799 317 2815 333 C 2837 355 2857 355 2869 331 z" stroke-linecap="round" />
</g>
<g transform="matrix(0.13 0 0 -0.13 506.99 643.88)"  >
<path style="stroke: none; stroke-width: 1; stroke-dasharray: none; stroke-linecap: butt; stroke-dashoffset: 0; stroke-linejoin: miter; stroke-miterlimit: 4; fill: rgb(0,0,0); fill-rule: nonzero; opacity: 1;" vector-effect="non-scaling-stroke"  transform=" translate(-3023.48, -315.49)" d="M 2992 348 C 2971 327 2978 291 3005 278 C 3025 269 3033 269 3043 280 C 3053 290 3052 292 3038 287 C 3029 284 3014 287 3003 295 C 2982 310 2992 317 3044 322 C 3072 325 3073 326 3056 343 C 3036 363 3009 365 2992 348 z M 3040 340 C 3051 333 3046 330 3020 330 C 2994 330 2989 333 3000 340 C 3008 345 3017 350 3020 350 C 3023 350 3032 345 3040 340 z" stroke-linecap="round" />
</g>
<g transform="matrix(0.13 0 0 -0.13 530.62 643.86)"  >
<path style="stroke: none; stroke-width: 1; stroke-dasharray: none; stroke-linecap: butt; stroke-dashoffset: 0; stroke-linejoin: miter; stroke-miterlimit: 4; fill: rgb(0,0,0); fill-rule: nonzero; opacity: 1;" vector-effect="non-scaling-stroke"  transform=" translate(-3200.69, -315.68)" d="M 3162 310 C 3163 275 3164 272 3167 297 C 3175 356 3220 367 3220 310 C 3220 294 3225 278 3230 275 C 3245 266 3242 336 3228 348 C 3221 354 3203 358 3188 357 C 3162 355 3160 352 3162 310 z" stroke-linecap="round" />
</g>
<g transform="matrix(0.13 0 0 -0.13 551.91 643.95)"  >
<path style="stroke: none; stroke-width: 1; stroke-dasharray: none; stroke-linecap: butt; stroke-dashoffset: 0; stroke-linejoin: miter; stroke-miterlimit: 4; fill: rgb(0,0,0); fill-rule: nonzero; opacity: 1;" vector-effect="non-scaling-stroke"  transform=" translate(-3360.25, -314.94)" d="M 3335 340 C 3318 322 3318 319 3334 295 C 3351 269 3384 262 3396 282 C 3401 289 3398 291 3388 287 C 3379 284 3364 288 3353 295 C 3339 306 3337 312 3346 327 C 3353 337 3367 344 3379 343 C 3392 341 3399 344 3395 350 C 3385 366 3354 361 3335 340 z" stroke-linecap="round" />
</g>
<g transform="matrix(0.13 0 0 -0.13 571.43 643.77)"  >
<path style="stroke: none; stroke-width: 1; stroke-dasharray: none; stroke-linecap: butt; stroke-dashoffset: 0; stroke-linejoin: miter; stroke-miterlimit: 4; fill: rgb(0,0,0); fill-rule: nonzero; opacity: 1;" vector-effect="non-scaling-stroke"  transform=" translate(-3505.75, -316.6)" d="M 3503 315 C 3503 288 3505 277 3507 293 C 3509 308 3509 330 3507 343 C 3505 355 3503 343 3503 315 z" stroke-linecap="round" />
</g>
<g transform="matrix(0.13 0 0 -0.13 589.28 643.79)"  >
<path style="stroke: none; stroke-width: 1; stroke-dasharray: none; stroke-linecap: butt; stroke-dashoffset: 0; stroke-linejoin: miter; stroke-miterlimit: 4; fill: rgb(0,0,0); fill-rule: nonzero; opacity: 1;" vector-effect="non-scaling-stroke"  transform=" translate(-3640.53, -316.17)" d="M 3616 351 C 3612 346 3618 344 3629 347 C 3639 350 3650 347 3654 342 C 3657 337 3646 330 3630 326 C 3580 317 3601 266 3651 273 C 3696 280 3685 360 3639 360 C 3629 360 3619 356 3616 351 z M 3660 306 C 3660 298 3654 290 3647 287 C 3628 280 3606 295 3614 309 C 3624 325 3660 323 3660 306 z" stroke-linecap="round" />
</g>
<g transform="matrix(0.13 0 0 -0.13 650.23 643.79)"  >
<path style="stroke: none; stroke-width: 1; stroke-dasharray: none; stroke-linecap: butt; stroke-dashoffset: 0; stroke-linejoin: miter; stroke-miterlimit: 4; fill: rgb(0,0,0); fill-rule: nonzero; opacity: 1;" vector-effect="non-scaling-stroke"  transform=" translate(-4097.76, -316.16)" d="M 4066 338 C 4055 323 4054 312 4060 299 C 4073 276 4109 265 4124 280 C 4132 290 4131 291 4120 288 C 4101 281 4068 298 4075 311 C 4079 316 4094 320 4111 320 C 4142 320 4147 329 4128 348 C 4110 366 4083 362 4066 338 z M 4120 340 C 4131 333 4126 330 4100 330 C 4074 330 4069 333 4080 340 C 4088 345 4097 350 4100 350 C 4103 350 4112 345 4120 340 z" stroke-linecap="round" />
</g>
<g transform="matrix(0.13 0 0 -0.13 692.97 644.47)"  >
<path style="stroke: none; stroke-width: 1; stroke-dasharray: none; stroke-linecap: butt; stroke-dashoffset: 0; stroke-linejoin: miter; stroke-miterlimit: 4; fill: rgb(0,0,0); fill-rule: nonzero; opacity: 1;" vector-effect="non-scaling-stroke"  transform=" translate(-4419, -311)" d="M 4351 311 L 4352 265 L 4360 303 C 4368 347 4374 354 4395 347 C 4404 343 4410 328 4410 310 C 4410 270 4428 271 4432 313 C 4434 337 4440 345 4455 345 C 4471 345 4476 336 4481 305 L 4488 265 L 4486 310 L 4485 355 L 4418 356 L 4350 357 L 4351 311 z" stroke-linecap="round" />
</g>
<g transform="matrix(0.13 0 0 -0.13 721.03 643.77)"  >
<path style="stroke: none; stroke-width: 1; stroke-dasharray: none; stroke-linecap: butt; stroke-dashoffset: 0; stroke-linejoin: miter; stroke-miterlimit: 4; fill: rgb(0,0,0); fill-rule: nonzero; opacity: 1;" vector-effect="non-scaling-stroke"  transform=" translate(-4628.72, -316.35)" d="M 4595 350 C 4591 343 4597 341 4613 345 C 4627 349 4640 347 4644 342 C 4647 337 4636 330 4620 326 C 4564 315 4588 265 4645 274 C 4669 277 4678 323 4659 346 C 4646 362 4604 365 4595 350 z M 4644 311 C 4647 306 4644 298 4637 292 C 4622 279 4595 293 4604 309 C 4613 322 4637 324 4644 311 z" stroke-linecap="round" />
</g>
<g transform="matrix(0.13 0 0 -0.13 741.4 643.76)"  >
<path style="stroke: none; stroke-width: 1; stroke-dasharray: none; stroke-linecap: butt; stroke-dashoffset: 0; stroke-linejoin: miter; stroke-miterlimit: 4; fill: rgb(0,0,0); fill-rule: nonzero; opacity: 1;" vector-effect="non-scaling-stroke"  transform=" translate(-4780.97, -316.48)" d="M 4760 313 C 4760 284 4764 271 4771 276 C 4777 279 4779 291 4777 302 C 4774 313 4779 329 4789 339 C 4807 357 4807 358 4784 358 C 4762 358 4760 353 4760 313 z" stroke-linecap="round" />
</g>
<g transform="matrix(0.13 0 0 -0.13 782.07 643.78)"  >
<path style="stroke: none; stroke-width: 1; stroke-dasharray: none; stroke-linecap: butt; stroke-dashoffset: 0; stroke-linejoin: miter; stroke-miterlimit: 4; fill: rgb(0,0,0); fill-rule: nonzero; opacity: 1;" vector-effect="non-scaling-stroke"  transform=" translate(-5086.62, -316.25)" d="M 5056 341 C 5042 326 5041 317 5049 302 C 5063 276 5098 264 5114 280 C 5122 290 5121 291 5106 286 C 5088 280 5060 295 5060 311 C 5060 316 5076 320 5095 320 C 5132 320 5138 328 5118 348 C 5100 366 5076 363 5056 341 z M 5110 340 C 5121 333 5116 330 5090 330 C 5064 330 5059 333 5070 340 C 5078 345 5087 350 5090 350 C 5093 350 5102 345 5110 340 z" stroke-linecap="round" />
</g>
<g transform="matrix(0.13 0 0 -0.13 819.43 643.77)"  >
<path style="stroke: none; stroke-width: 1; stroke-dasharray: none; stroke-linecap: butt; stroke-dashoffset: 0; stroke-linejoin: miter; stroke-miterlimit: 4; fill: rgb(0,0,0); fill-rule: nonzero; opacity: 1;" vector-effect="non-scaling-stroke"  transform=" translate(-5365.75, -316.6)" d="M 5363 315 C 5363 288 5365 277 5367 293 C 5369 308 5369 330 5367 343 C 5365 355 5363 343 5363 315 z" stroke-linecap="round" />
</g>
<g transform="matrix(0.13 0 0 -0.13 838.51 643.91)"  >
<path style="stroke: none; stroke-width: 1; stroke-dasharray: none; stroke-linecap: butt; stroke-dashoffset: 0; stroke-linejoin: miter; stroke-miterlimit: 4; fill: rgb(0,0,0); fill-rule: nonzero; opacity: 1;" vector-effect="non-scaling-stroke"  transform=" translate(-5509.81, -315.32)" d="M 5472 310 C 5473 275 5474 272 5477 297 C 5485 363 5535 363 5543 297 C 5547 265 5547 265 5548 301 C 5550 343 5536 359 5498 357 C 5472 355 5470 352 5472 310 z" stroke-linecap="round" />
</g>
<g transform="matrix(0.13 0 0 -0.13 861.58 646.04)"  >
<path style="stroke: none; stroke-width: 1; stroke-dasharray: none; stroke-linecap: butt; stroke-dashoffset: 0; stroke-linejoin: miter; stroke-miterlimit: 4; fill: rgb(0,0,0); fill-rule: nonzero; opacity: 1;" vector-effect="non-scaling-stroke"  transform=" translate(-5683, -298.93)" d="M 5646 339 C 5638 327 5634 311 5637 304 C 5645 283 5678 268 5700 275 C 5716 280 5718 278 5713 265 C 5709 252 5700 250 5678 254 C 5660 257 5651 256 5655 250 C 5664 236 5704 238 5718 252 C 5725 259 5730 284 5730 309 C 5730 354 5729 355 5696 357 C 5670 359 5657 354 5646 339 z M 5714 327 C 5723 312 5721 306 5706 295 C 5671 269 5632 308 5662 338 C 5678 354 5700 350 5714 327 z" stroke-linecap="round" />
</g>
<g transform="matrix(0 0 0 0 0 0)"  >
<g style=""   >
</g>
</g>
<g transform="matrix(0 0 0 0 0 0)"  >
<g style=""   >
</g>
</g>
<g transform="matrix(0 0 0 0 0 0)"  >
<g style=""   >
</g>
</g>
<g transform="matrix(0 0 0 0 0 0)"  >
<g style=""   >
</g>
</g>
<g transform="matrix(NaN NaN NaN NaN 0 0)"  >
<g style=""   >
</g>
</g>
<g transform="matrix(NaN NaN NaN NaN 0 0)"  >
<g style=""   >
</g>
</g>
<g transform="matrix(NaN NaN NaN NaN 0 0)"  >
<g style=""   >
</g>
</g>
<g transform="matrix(NaN NaN NaN NaN 0 0)"  >
<g style=""   >
</g>
</g>
</svg>